<svg width="572" height="572" viewBox="0 0 572 572" fill="none" xmlns="http://www.w3.org/2000/svg">
<path fill-rule="evenodd" clip-rule="evenodd" d="M5.28545 5.28337C5.39823 5.16223 5.5132 5.04308 5.63035 4.92593C34.3349 -23.7786 183.288 78.6351 338.326 233.673C493.364 388.711 595.778 537.664 567.073 566.369C566.956 566.486 566.837 566.601 566.716 566.714L521.192 521.19C521.314 521.078 521.434 520.963 521.551 520.846C545.6 496.797 459.794 371.998 329.898 242.101C200.001 112.205 75.2025 26.3986 51.1527 50.4483C51.0356 50.5655 50.921 50.685 50.8091 50.807L5.28545 5.28337ZM61.8477 61.8456C84.7338 38.9596 203.485 120.605 327.086 244.206C450.687 367.807 532.332 486.558 509.446 509.444L492.303 492.301C492.426 492.19 492.545 492.075 492.663 491.958C513.803 470.818 438.572 361.311 324.63 247.369C210.688 133.427 101.181 58.1959 80.0408 79.3364C79.9237 79.4536 79.8094 79.5735 79.6982 79.6961L61.8477 61.8456Z" fill="#B87D43"/>
<circle cx="286" cy="270" r="208" fill="#FCCB6B"/>
<mask id="mask0_0_1" style="mask-type:luminance" maskUnits="userSpaceOnUse" x="78" y="62" width="416" height="416">
<circle cx="286" cy="270" r="208" fill="white"/>
</mask>
<g mask="url(#mask0_0_1)">
<path fill-rule="evenodd" clip-rule="evenodd" d="M492.369 470.472C487.683 465.785 480.085 465.785 475.399 470.472C470.712 475.158 470.712 482.756 475.399 487.442L585.707 597.751C590.394 602.437 597.992 602.437 602.678 597.751C607.364 593.065 607.364 585.467 602.678 580.78L492.369 470.472ZM336.806 314.908C332.119 310.222 324.521 310.222 319.835 314.908C315.149 319.594 315.149 327.192 319.835 331.879L374.989 387.033L374.982 387.04C379.319 391.748 379.204 399.082 374.636 403.65C370.068 408.218 362.733 408.333 358.026 403.996L358.019 404.004L244.882 290.867C240.195 286.18 232.598 286.18 227.911 290.867C223.225 295.553 223.225 303.151 227.911 307.837L409.638 489.564C414.324 494.25 421.922 494.25 426.608 489.564C431.295 484.877 431.295 477.279 426.608 472.593L391.96 437.945C387.274 433.258 387.274 425.661 391.96 420.974C396.646 416.288 404.244 416.288 408.931 420.974L430.144 442.187C434.83 446.874 442.428 446.874 447.114 442.187C451.801 437.501 451.801 429.903 447.114 425.217L336.806 314.908ZM413.88 527.747C409.194 523.061 401.596 523.061 396.91 527.747C392.223 532.434 392.223 540.032 396.91 544.718L448.529 596.337C453.215 601.023 460.813 601.023 465.499 596.337C470.185 591.65 470.185 584.052 465.499 579.366L413.88 527.747ZM210.941 324.808C206.254 320.121 198.656 320.121 193.97 324.808C189.284 329.494 189.284 337.092 193.97 341.778L245.589 393.397C250.275 398.083 257.873 398.083 262.559 393.397C267.246 388.711 267.246 381.113 262.559 376.426L210.941 324.808ZM15.7792 146.617C20.4655 141.93 28.0634 141.93 32.7497 146.617L150.129 263.997C154.816 268.683 154.816 276.281 150.129 280.967C145.443 285.653 137.845 285.653 133.159 280.967L15.7792 163.587C11.0929 158.901 11.0929 151.303 15.7792 146.617ZM209.526 221.57C204.84 216.884 197.242 216.884 192.556 221.57C187.87 226.256 187.87 233.854 192.556 238.541L198.92 244.905C203.606 249.591 203.606 257.189 198.92 261.875C194.234 266.561 186.636 266.561 181.949 261.875L0.222837 80.1488C-4.46347 75.4624 -4.46346 67.8645 0.222837 63.1782C4.90913 58.4919 12.5071 58.4919 17.1934 63.1782L158.615 204.6L158.622 204.592C163.329 208.929 170.664 208.814 175.232 204.246C179.8 199.678 179.915 192.344 175.578 187.636L175.585 187.629L158.615 170.658C153.928 165.972 153.928 158.374 158.615 153.688C163.301 149.002 170.899 149.002 175.585 153.688L285.894 263.997C290.58 268.683 290.58 276.281 285.894 280.967C281.208 285.653 273.61 285.653 268.923 280.967L209.526 221.57ZM7.29391 2.36701C11.9802 -2.31928 19.5782 -2.3193 24.2645 2.36701L134.573 112.676C139.259 117.362 139.259 124.96 134.573 129.646C129.887 134.333 122.289 134.333 117.603 129.646L7.29391 19.3376C2.6076 14.6513 2.60761 7.0533 7.29391 2.36701Z" fill="#ECB55A"/>
</g>
<mask id="mask1_0_1" style="mask-type:luminance" maskUnits="userSpaceOnUse" x="78" y="62" width="416" height="416">
<circle cx="286" cy="270" r="208" fill="white"/>
</mask>
<g mask="url(#mask1_0_1)">
<rect opacity="0.0775757" x="286" y="62" width="209.089" height="416" fill="black"/>
</g>
<path fill-rule="evenodd" clip-rule="evenodd" d="M286 472C397.562 472 488 381.562 488 270C488 158.438 397.562 68 286 68V472Z" fill="#9C4925"/>
<mask id="mask2_0_1" style="mask-type:luminance" maskUnits="userSpaceOnUse" x="286" y="68" width="202" height="404">
<path fill-rule="evenodd" clip-rule="evenodd" d="M286 472C397.562 472 488 381.562 488 270C488 158.438 397.562 68 286 68V472Z" fill="white"/>
</mask>
<g mask="url(#mask2_0_1)">
<circle cx="287" cy="270" r="114" fill="#E09B7F"/>
<circle cx="286.5" cy="270.5" r="34.5" fill="#FFEECC"/>
</g>
<path fill-rule="evenodd" clip-rule="evenodd" d="M5.28423 5.28459C5.16308 5.39738 5.04393 5.51234 4.92678 5.62949C-23.7777 34.334 78.6359 183.287 233.674 338.325C388.712 493.363 537.665 595.777 566.37 567.072C566.487 566.955 566.602 566.836 566.714 566.715L521.191 521.191C521.079 521.313 520.964 521.433 520.847 521.55C496.797 545.6 371.999 459.794 242.102 329.897C112.205 200 26.3994 75.2016 50.4492 51.1519C50.5663 51.0347 50.6859 50.9202 50.8078 50.8082L5.28423 5.28459ZM61.8465 61.8469C38.9605 84.7329 120.606 203.484 244.207 327.085C367.808 450.686 486.559 532.331 509.445 509.445L492.302 492.302C492.19 492.425 492.076 492.545 491.959 492.662C470.819 513.802 361.312 438.571 247.37 324.629C133.428 210.687 58.1968 101.18 79.3373 80.04C79.4545 79.9228 79.5743 79.8086 79.6969 79.6973L61.8465 61.8469Z" fill="#B87D43"/>
</svg>
